<?xml version="1.0" standalone="no"?>
<!DOCTYPE svg PUBLIC "-//W3C//DTD SVG 20010904//EN"
 "http://www.w3.org/TR/2001/REC-SVG-20010904/DTD/svg10.dtd">
<svg version="1.0" xmlns="http://www.w3.org/2000/svg"
 width="1000.000000pt" height="1000.000000pt" viewBox="0 0 1000.000000 1000.000000"
 preserveAspectRatio="xMidYMid meet">
<metadata>
Created by potrace 1.14, written by Peter Selinger 2001-2017
</metadata>
<g transform="translate(0.000000,1000.000000) scale(0.100000,-0.100000)"
fill="#000000" stroke="none">
<path d="M0 5000 l0 -5000 2071 0 2072 0 -7 43 c-4 23 -11 87 -16 142 -6 55
-15 129 -20 165 -11 67 -21 158 -40 359 -5 62 -13 117 -16 122 -3 5 -5 71 -5
146 -1 76 -5 156 -11 178 -5 22 -14 60 -19 85 -12 59 -39 333 -33 341 2 4 -3
46 -11 93 -8 48 -19 141 -24 209 -5 67 -16 203 -25 302 -40 472 -51 710 -49
1090 1 213 7 439 14 515 8 81 14 318 15 596 1 315 5 468 13 482 6 11 11 34 11
50 0 29 34 175 45 192 29 46 36 -112 8 -176 -36 -86 -9 -585 48 -884 11 -56
42 -111 55 -98 3 4 1 72 -6 150 -13 155 -12 213 7 213 6 0 15 3 19 8 15 14 23
6 38 -41 11 -31 26 -54 41 -62 14 -7 28 -23 31 -34 11 -36 113 -132 164 -156
28 -13 48 -25 45 -28 -8 -9 16 -43 28 -39 25 9 45 -23 40 -64 -4 -29 -1 -45
12 -59 18 -20 18 -20 41 1 15 14 29 19 43 14 14 -4 23 -1 27 9 3 9 12 16 18
16 9 0 12 20 12 62 0 55 15 134 45 233 21 72 53 162 65 187 8 15 14 39 14 53
0 14 28 79 63 143 35 64 77 149 92 187 16 39 34 79 41 90 7 11 15 36 19 55 4
19 24 71 45 115 20 44 45 97 54 118 9 20 22 52 30 70 45 101 54 128 65 192 17
96 53 257 62 274 13 26 20 -151 11 -244 -6 -49 -8 -93 -6 -96 2 -4 -3 -44 -10
-90 -8 -46 -20 -118 -26 -159 -7 -41 -31 -151 -55 -245 -23 -93 -45 -190 -49
-215 -7 -50 -14 -76 -80 -295 -25 -82 -45 -166 -44 -185 1 -30 -18 -124 -52
-260 -31 -124 -57 -253 -124 -607 -14 -72 -36 -176 -50 -230 -24 -94 -67 -274
-81 -338 -4 -16 -11 -68 -16 -115 -13 -126 -46 -343 -89 -590 -22 -123 -31
-173 -55 -315 -8 -49 -19 -110 -24 -135 -9 -42 -15 -76 -42 -232 -6 -35 -15
-83 -20 -108 -5 -25 -16 -88 -24 -140 -9 -52 -29 -160 -45 -240 -33 -165 -54
-314 -70 -480 -6 -63 -16 -151 -21 -194 -5 -44 -9 -94 -9 -113 l0 -33 2875 0
2875 0 0 5000 0 5000 -5000 0 -5000 0 0 -5000z m4380 4932 c0 -4 -9 -8 -19 -8
-11 0 -17 4 -15 8 3 4 12 8 20 8 8 0 14 -4 14 -8z m977 -734 c-3 -7 -5 -2 -5
12 0 14 2 19 5 13 2 -7 2 -19 0 -25z m-1847 -28 c0 -5 -2 -10 -4 -10 -3 0 -8
5 -11 10 -3 6 -1 10 4 10 6 0 11 -4 11 -10z m626 -464 c3 -8 23 -22 45 -30 22
-9 42 -24 46 -34 3 -9 13 -25 21 -34 15 -18 9 -54 -7 -44 -23 14 -27 -52 -7
-97 19 -41 25 -104 15 -141 -6 -22 -4 -37 8 -55 23 -36 105 -114 134 -128 19
-8 28 -24 36 -59 13 -55 4 -75 -23 -53 -10 8 -15 9 -11 3 7 -11 -32 -34 -58
-34 -8 0 -15 -4 -15 -10 0 -5 -7 -10 -15 -10 -8 0 -21 -13 -30 -30 -10 -19
-23 -30 -36 -30 -12 0 -32 -9 -46 -20 -18 -14 -30 -17 -42 -10 -10 5 -23 5
-32 -1 -25 -15 -67 -11 -72 9 -3 14 -6 13 -14 -7 l-10 -25 -23 27 c-13 15 -29
27 -36 27 -12 0 -34 50 -34 79 0 10 6 23 13 30 6 7 12 31 12 53 0 39 2 42 50
67 28 15 64 34 80 43 17 9 38 19 48 22 14 4 17 12 12 28 -9 29 -34 58 -51 58
-7 0 -22 14 -34 30 -12 17 -30 30 -40 30 -10 0 -22 5 -25 11 -4 5 -18 14 -32
20 -22 8 -24 13 -18 53 5 34 3 52 -11 75 -15 25 -16 35 -6 56 7 14 17 36 23
49 10 22 46 44 129 80 44 19 49 19 56 2z m-736 -6 c0 -5 -2 -10 -4 -10 -3 0
-8 5 -11 10 -3 6 -1 10 4 10 6 0 11 -4 11 -10z m-27 -125 c-3 -9 -8 -14 -10
-11 -3 3 -2 9 2 15 9 16 15 13 8 -4z m923 -282 c-11 -11 -19 6 -11 24 8 17 8
17 12 0 3 -10 2 -21 -1 -24z m-922 -469 c3 -8 2 -12 -4 -9 -6 3 -10 10 -10 16
0 14 7 11 14 -7z m18 -156 c-7 -7 -12 -8 -12 -2 0 14 12 26 19 19 2 -3 -1 -11
-7 -17z m882 -90 c3 -13 7 -114 9 -224 2 -160 6 -207 18 -225 31 -47 32 -89 3
-132 -23 -35 -29 -39 -60 -35 -23 3 -35 -1 -39 -11 -4 -10 -9 -11 -17 -3 -24
24 -90 -30 -106 -88 -6 -23 -14 -35 -25 -34 -10 1 -17 -3 -18 -10 -3 -34 4
-80 17 -104 8 -15 17 -43 20 -62 3 -19 15 -54 26 -77 13 -29 17 -52 13 -76 -6
-32 -9 -34 -33 -27 -38 10 -72 6 -83 -11 -7 -12 -9 -12 -9 1 0 8 -9 21 -20 28
-11 6 -27 29 -35 49 -20 47 -42 71 -80 87 -16 7 -38 22 -48 33 -16 19 -38 101
-38 146 0 18 -34 59 -42 51 -2 -3 -10 10 -16 28 -7 18 -17 41 -22 51 -5 10 -7
21 -5 26 3 4 -1 8 -9 8 -8 0 -15 -4 -15 -8 0 -5 -7 -6 -15 -3 -16 6 -10 56 7
63 5 2 13 14 18 27 5 13 16 24 25 24 8 0 15 8 15 18 0 22 40 25 53 5 4 -7 16
-13 27 -13 10 0 20 6 23 13 3 7 9 2 16 -13 15 -32 59 -54 77 -39 7 6 14 20 16
32 2 15 14 25 42 32 32 9 39 16 42 39 4 36 8 39 33 31 25 -8 27 -23 4 -40 -15
-11 -15 -15 -3 -30 7 -9 22 -14 31 -12 10 3 21 0 24 -7 3 -7 7 -6 11 3 4 8 17
24 30 36 13 12 24 33 23 46 -2 69 14 206 25 219 8 8 16 44 18 80 6 71 30 130
53 130 8 0 17 -10 19 -22z m-857 -10 c-3 -8 -6 -5 -6 6 -1 11 2 17 5 13 3 -3
4 -12 1 -19z m203 -114 c0 -23 -3 -63 -7 -90 l-7 -49 -6 36 c-9 49 0 175 11
158 5 -8 9 -32 9 -55z m1737 -136 c-3 -7 -5 -2 -5 12 0 14 2 19 5 13 2 -7 2
-19 0 -25z m-1733 -74 c8 -40 -10 -76 -25 -52 -17 25 -7 104 11 93 4 -3 11
-21 14 -41z m-114 -14 c0 -5 -5 -10 -11 -10 -5 0 -7 5 -4 10 3 6 8 10 11 10 2
0 4 -4 4 -10z m90 -106 c0 -14 4 -22 10 -19 6 3 10 -3 10 -13 0 -16 -17 -32
-35 -32 -8 0 -15 53 -9 75 8 31 24 23 24 -11z m120 16 c0 -5 -4 -10 -10 -10
-5 0 -10 5 -10 10 0 6 5 10 10 10 6 0 10 -4 10 -10z m37 -12 c-3 -8 -6 -5 -6
6 -1 11 2 17 5 13 3 -3 4 -12 1 -19z m1620 -325 c-1 -59 -3 -13 -3 102 0 116
2 164 3 108 2 -56 2 -151 0 -210z m-1850 250 c-3 -10 -5 -2 -5 17 0 19 2 27 5
18 2 -10 2 -26 0 -35z m83 -67 c4 -21 4 -36 -1 -36 -5 0 -9 -4 -9 -9 0 -4 12
-8 26 -7 22 1 28 -6 40 -39 16 -47 18 -75 4 -75 -5 0 -12 16 -16 37 -6 33 -8
35 -20 18 -8 -10 -17 -16 -20 -12 -4 4 -12 -1 -19 -10 -9 -13 -14 -13 -20 -3
-5 9 -4 11 3 6 7 -4 12 -2 12 3 0 6 -3 11 -7 11 -7 0 -11 137 -5 165 4 18 24
-13 32 -49z m1000 43 c0 -8 5 -7 15 1 9 7 17 11 18 9 33 -42 47 -74 47 -101 0
-18 3 -59 6 -92 7 -64 -4 -88 -31 -66 -13 11 -15 9 -15 -13 0 -30 -32 -73 -48
-63 -6 4 -16 34 -23 67 -8 40 -15 56 -20 47 -13 -20 -10 21 5 62 9 23 10 44 4
61 -7 19 -5 37 6 63 14 34 36 49 36 25z m-1094 -197 c-8 -16 -12 -32 -9 -36 4
-3 1 -6 -5 -6 -16 0 -15 32 1 49 10 11 9 12 -1 6 -17 -9 -12 24 6 43 6 7 13
37 14 65 2 42 3 37 5 -20 3 -51 -1 -81 -11 -101z m104 -67 c15 -31 21 -58 18
-83 -3 -24 1 -49 14 -72 12 -24 18 -56 18 -102 0 -72 -7 -85 -34 -65 -14 10
-18 30 -20 90 -1 45 -7 82 -14 89 -11 11 -19 188 -8 188 2 0 14 -20 26 -45z
m27 -7 c-3 -8 -6 -5 -6 6 -1 11 2 17 5 13 3 -3 4 -12 1 -19z m-83 -194 c4 -9
2 -22 -4 -30 -6 -7 -10 -34 -8 -61 2 -39 0 -48 -13 -47 -9 1 -16 -5 -16 -12 0
-7 4 -11 9 -8 4 3 8 -6 8 -20 0 -16 -6 -26 -15 -26 -13 0 -15 21 -15 126 0 69
4 123 9 120 9 -6 20 37 22 88 1 17 5 -2 9 -42 5 -40 11 -80 14 -88z m1793 -56
c-2 -13 -4 -5 -4 17 -1 22 1 32 4 23 2 -10 2 -28 0 -40z m-1077 -68 c11 -7 12
-12 3 -21 -15 -15 -43 -5 -43 16 0 17 18 19 40 5z m1057 -40 c2 -22 -2 -40 -7
-40 -11 0 -14 63 -3 73 3 4 7 7 7 7 1 0 2 -18 3 -40z m-127 -20 c0 -5 -6 -10
-14 -10 -9 0 -12 -7 -9 -20 3 -11 9 -20 14 -20 5 0 9 -34 9 -75 0 -53 -4 -75
-12 -75 -9 0 -12 -15 -10 -50 4 -49 -11 -80 -37 -80 -12 0 -13 78 -1 125 l8
30 1 -33 c1 -21 5 -31 12 -27 6 4 8 13 5 21 -3 7 0 16 6 20 10 6 7 65 -9 167
-5 33 -3 37 16 37 11 0 21 -4 21 -10z m-1553 -22 c-3 -8 -6 -5 -6 6 -1 11 2
17 5 13 3 -3 4 -12 1 -19z m-78 -80 c1 -36 -2 -57 -8 -54 -5 4 -13 1 -17 -5
-5 -8 1 -10 18 -7 22 4 24 1 26 -30 2 -26 -1 -33 -11 -29 -7 3 -14 -1 -14 -8
0 -10 7 -11 23 -5 18 7 23 5 26 -15 7 -35 -8 -53 -16 -20 -5 21 -10 25 -19 16
-19 -19 -27 -12 -27 24 0 19 -4 35 -10 35 -6 0 -10 29 -10 66 0 47 3 63 12 58
7 -5 9 -1 6 13 -3 12 0 20 7 20 8 0 13 -21 14 -59z m127 -112 c4 -28 2 -57 -6
-75 -11 -27 -9 -35 13 -73 26 -45 28 -105 5 -119 -6 -4 -8 -14 -5 -23 4 -10 1
-16 -7 -16 -10 0 -13 11 -11 38 4 51 4 52 13 50 4 -2 8 2 10 7 2 6 -4 11 -13
13 -8 2 -15 0 -14 -5 3 -18 -2 -33 -11 -33 -5 0 -10 9 -10 20 0 11 -4 20 -10
20 -5 0 -10 7 -10 15 0 8 -6 15 -14 15 -8 0 -16 13 -18 29 -2 17 -1 28 4 25 8
-5 12 9 9 33 -1 6 3 14 9 18 13 8 13 -21 0 -46 -8 -15 -7 -19 5 -19 13 0 16 7
15 35 0 3 6 18 14 33 9 17 12 46 9 82 -5 67 14 48 23 -24z m607 -4 c36 -3 47
-8 45 -20 -3 -17 -124 -46 -142 -34 -6 4 -20 7 -31 7 -13 0 -20 7 -20 19 0 21
59 48 85 39 8 -3 37 -8 63 -11z m874 -139 c0 -7 -4 -13 -7 -13 -4 0 -12 6 -18
13 -8 10 -6 13 7 13 10 0 18 -6 18 -13z m-1437 -177 c0 -7 -6 -19 -13 -25 -11
-8 -13 -6 -11 12 3 28 2 27 14 27 6 0 10 -6 10 -14z m35 -102 l12 -30 -31 5
c-27 4 -28 5 -9 10 18 5 20 9 12 21 -9 12 -12 13 -16 1 -4 -11 -7 -11 -14 0
-5 8 -2 20 9 30 11 10 18 12 21 5 2 -6 9 -25 16 -42z m612 1 c19 -13 20 -19
11 -45 -10 -29 -12 -30 -76 -30 -42 -1 -74 -6 -86 -15 -16 -12 -22 -12 -42 2
-14 9 -24 25 -24 38 0 19 9 26 53 39 100 30 134 32 164 11z m-584 -72 c-7 -3
-13 -12 -13 -21 0 -13 -2 -14 -12 -3 -10 11 -10 14 0 18 6 3 12 12 12 21 0 13
2 14 13 3 10 -11 10 -14 0 -18z m27 -49 c0 -11 -5 -14 -16 -10 -9 3 -18 6 -20
6 -3 0 -2 5 1 10 10 16 35 12 35 -6z m20 -34 c0 -5 -7 -10 -16 -10 -8 0 -12 5
-9 10 3 6 10 10 16 10 5 0 9 -4 9 -10z m17 -42 c-3 -8 -6 -5 -6 6 -1 11 2 17
5 13 3 -3 4 -12 1 -19z m1623 18 c0 -3 -4 -8 -10 -11 -5 -3 -10 -1 -10 4 0 6
5 11 10 11 6 0 10 -2 10 -4z m-1592 -61 c-3 -3 -9 2 -12 12 -6 14 -5 15 5 6 7
-7 10 -15 7 -18z m22 -41 c0 -8 -4 -12 -10 -9 -5 3 -10 13 -10 21 0 8 5 12 10
9 6 -3 10 -13 10 -21z m5 -124 c-3 -5 -10 -10 -16 -10 -5 0 -9 5 -9 10 0 6 7
10 16 10 8 0 12 -4 9 -10z m1690 0 c3 -5 1 -10 -4 -10 -6 0 -11 5 -11 10 0 6
2 10 4 10 3 0 8 -4 11 -10z m-1735 -30 c0 -5 -4 -10 -10 -10 -5 0 -10 5 -10
10 0 6 5 10 10 10 6 0 10 -4 10 -10z m-70 -220 c0 -5 -5 -10 -11 -10 -5 0 -7
5 -4 10 3 6 8 10 11 10 2 0 4 -4 4 -10z m2217 -35 c0 -8 -4 -12 -9 -9 -4 3 -8
9 -8 15 0 5 4 9 8 9 5 0 9 -7 9 -15z m160 -47 c-3 -7 -5 -2 -5 12 0 14 2 19 5
13 2 -7 2 -19 0 -25z m-97 12 c0 -5 -4 -10 -9 -10 -6 0 -13 5 -16 10 -3 6 1
10 9 10 9 0 16 -4 16 -10z m77 -35 c0 -10 -6 -14 -14 -10 -8 3 -18 5 -21 6 -4
0 2 4 13 9 11 5 20 9 21 9 0 1 1 -6 1 -14z m86 -38 c4 -10 -3 -12 -24 -9 -16
2 -29 8 -29 13 0 14 47 10 53 -4z m101 -32 c-7 -16 -59 -21 -69 -6 -5 9 17 16
57 20 12 1 15 -4 12 -14z m91 -5 c-2 -11 -7 -25 -10 -30 -3 -6 -1 -10 6 -10 7
0 10 -2 7 -5 -3 -3 -19 -2 -37 1 -33 7 -31 19 4 26 11 2 21 9 21 16 2 18 4 22
8 22 3 0 3 -9 1 -20z m60 -66 c-9 -10 -22 -13 -33 -9 -14 7 -13 9 8 15 39 12
43 11 25 -6z m92 -9 c0 -8 -3 -13 -5 -10 -8 8 -32 -16 -26 -26 7 -11 -7 -11
-25 0 -11 7 -9 10 8 16 13 4 20 12 17 20 -2 7 -2 15 1 18 9 10 30 -3 30 -18z
m39 -63 c0 -14 -6 -17 -23 -14 -29 6 -30 19 0 25 12 2 22 5 22 6 1 0 1 -7 1
-17z m84 -66 c0 -3 -4 -8 -10 -11 -5 -3 -10 -1 -10 4 0 6 5 11 10 11 6 0 10
-2 10 -4z m110 -156 c0 -5 -2 -10 -4 -10 -3 0 -8 5 -11 10 -3 6 -1 10 4 10 6
0 11 -4 11 -10z m-4015 -599 c3 -5 2 -12 -3 -15 -5 -3 -9 1 -9 9 0 17 3 19 12
6z m4255 -186 c0 -5 -5 -3 -10 5 -5 8 -10 20 -10 25 0 6 5 3 10 -5 5 -8 10
-19 10 -25z m47 -71 c-3 -3 -12 -4 -19 -1 -8 3 -5 6 6 6 11 1 17 -2 13 -5z
m-30 -56 c-3 -8 -6 -5 -6 6 -1 11 2 17 5 13 3 -3 4 -12 1 -19z m-4449 -183
c-3 -3 -9 2 -12 12 -6 14 -5 15 5 6 7 -7 10 -15 7 -18z m4522 -125 c0 -5 -2
-10 -4 -10 -3 0 -8 5 -11 10 -3 6 -1 10 4 10 6 0 11 -4 11 -10z m-4548 -92
c-7 -7 -12 -8 -12 -2 0 6 3 14 7 17 3 4 9 5 12 2 2 -3 -1 -11 -7 -17z m-84
-1113 c-3 -3 -9 2 -12 12 -6 14 -5 15 5 6 7 -7 10 -15 7 -18z m4889 -1157 c-3
-8 -6 -5 -6 6 -1 11 2 17 5 13 3 -3 4 -12 1 -19z"/>
<path d="M4205 8390 c3 -5 8 -10 11 -10 2 0 4 5 4 10 0 6 -5 10 -11 10 -5 0
-7 -4 -4 -10z"/>
<path d="M4063 7023 c-8 -3 -13 -22 -13 -46 0 -49 15 -40 25 16 4 20 6 37 4
36 -2 0 -10 -3 -16 -6z"/>
<path d="M4646 6821 c-4 -7 -5 -15 -2 -18 9 -9 19 4 14 18 -4 11 -6 11 -12 0z"/>
<path d="M3520 6570 c0 -5 5 -10 10 -10 6 0 10 5 10 10 0 6 -4 10 -10 10 -5 0
-10 -4 -10 -10z"/>
<path d="M3526 6493 c-6 -14 -5 -15 5 -6 7 7 10 15 7 18 -3 3 -9 -2 -12 -12z"/>
<path d="M3523 6455 c0 -8 4 -12 9 -9 5 3 6 10 3 15 -9 13 -12 11 -12 -6z"/>
<path d="M3670 6031 c0 -5 5 -13 10 -16 6 -3 10 -2 10 4 0 5 -4 13 -10 16 -5
3 -10 2 -10 -4z"/>
<path d="M4805 4207 c-4 -10 -5 -21 -1 -24 10 -10 18 4 13 24 -4 17 -4 17 -12
0z"/>
</g>
</svg>
